<svg width="86" height="86" viewBox="0 0 86 86" fill="none" xmlns="http://www.w3.org/2000/svg">
<path d="M12 0C5.39627 0 0 5.39627 0 12C0 18.6037 5.39627 24 12 24C18.6037 24 24 18.6037 24 12C24 5.39627 18.6037 0 12 0ZM12 4C16.442 4 20 7.55803 20 12C20 16.442 16.442 20 12 20C7.55803 20 4 16.442 4 12C4 7.55803 7.55803 4 12 4ZM64 26C57.6052 26 53.2587 28.7193 50 31.8438V30C49.9999 28.9528 49.0472 28.0001 48 28H32C30.9528 28.0001 30.0001 28.9528 30 30V84C30.0001 85.0472 30.9528 85.9999 32 86H49C50.0472 85.9999 50.9999 85.0472 51 84V54C51 51.4689 51.7978 49.07 52.9688 47.4375C54.1397 45.805 55.5553 45 57 45H59C60.4447 45 61.8603 45.805 63.0312 47.4375C64.2022 49.07 65 51.4689 65 54V84C65.0001 85.0472 65.9528 85.9999 67 86H84C85.0472 85.9999 85.9999 85.0472 86 84V73C86.0149 71.9434 85.0567 70.9715 84 70.9715C82.9433 70.9715 81.9851 71.9434 82 73V82H69V54C69 50.6587 68.0023 47.5244 66.2812 45.125C64.5602 42.7256 61.9873 41 59 41H57C54.0127 41 51.4398 42.7256 49.7188 45.125C47.9977 47.5244 47 50.6587 47 54V66C46.6105 65.9997 46.1881 66 45.8125 66C44.7652 66.0489 43.8568 67.0464 43.9058 68.0938C43.9549 69.1411 44.9527 70.0493 46 70H47V74C46.6105 73.9997 46.1881 74 45.8125 74C44.7652 74.0489 43.8568 75.0464 43.9058 76.0938C43.9549 77.1411 44.9527 78.0493 46 78H47V82H34V32H46V37C45.9996 37.8226 46.5617 38.616 47.338 38.8884C48.1142 39.1607 49.0488 38.8925 49.5625 38.25C52.9201 34.0638 56.4982 30 64 30C71.1739 30 75.4555 31.8441 78.125 34.9688C80.7945 38.0934 82 42.8455 82 49V65C81.9851 66.0566 82.9433 67.0285 84 67.0285C85.0567 67.0285 86.0149 66.0566 86 65V49C86 42.333 84.7501 36.545 81.1875 32.375C77.6249 28.205 71.8975 26 64 26ZM3.8125 28C2.82933 28.0927 1.99574 29.0125 2 30V84C2.0001 85.0472 2.95283 85.9999 4 86H21C22.0472 85.9999 22.9999 85.0472 23 84V30C22.9999 28.9528 22.0472 28.0001 21 28C15.2767 28 9.52176 28 3.8125 28ZM6 32H19V66C18.6105 65.9997 18.1881 66 17.8125 66C16.7652 66.0489 15.8568 67.0464 15.9059 68.0938C15.9549 69.1411 16.9527 70.0493 18 70H19V74C18.6105 73.9997 18.1881 74 17.8125 74C16.7652 74.0489 15.8568 75.0464 15.9059 76.0938C15.9549 77.1411 16.9527 78.0493 18 78H19V82H6V32Z" fill="black"/>
</svg>
